<?xml version="1.0" encoding="utf-8"?>
<!-- Generator: Adobe Illustrator 23.1.0, SVG Export Plug-In . SVG Version: 6.00 Build 0)  -->
<svg version="1.1" id="圖層_1" xmlns="http://www.w3.org/2000/svg" xmlns:xlink="http://www.w3.org/1999/xlink" x="0px" y="0px"
	 viewBox="0 0 32.5 32.5" style="enable-background:new 0 0 32.5 32.5;" xml:space="preserve">
<style type="text/css">
	.st0{fill-rule:evenodd;clip-rule:evenodd;}
</style>
<path class="st0" d="M2.03,16.25c0,7.85,6.37,14.22,14.22,14.22s14.22-6.37,14.22-14.22S24.1,2.03,16.25,2.03S2.03,8.4,2.03,16.25z
	 M32.5,16.25c0,8.97-7.27,16.25-16.25,16.25S0,25.22,0,16.25S7.27,0,16.25,0S32.5,7.27,32.5,16.25z M9.14,15.23
	c-0.56,0-1.02,0.45-1.02,1.02s0.45,1.02,1.02,1.02h11.77l-4.36,4.36c-0.4,0.4-0.4,1.04,0,1.44s1.04,0.4,1.44,0l6.09-6.09
	c0.4-0.4,0.4-1.04,0-1.44c0,0,0,0,0,0l-6.09-6.09c-0.4-0.4-1.04-0.4-1.44,0s-0.4,1.04,0,1.44l4.36,4.36H9.14z"/>
</svg>
