<?xml version="1.0" encoding="utf-8"?>
<!-- Generator: Adobe Illustrator 23.1.0, SVG Export Plug-In . SVG Version: 6.00 Build 0)  -->
<svg version="1.1" id="圖層_1" xmlns="http://www.w3.org/2000/svg" xmlns:xlink="http://www.w3.org/1999/xlink" x="0px" y="0px"
	 viewBox="0 0 16 16" style="enable-background:new 0 0 16 16;" xml:space="preserve">
<path d="M0,1.5C0,1.22,0.22,1,0.5,1H2c0.23,0,0.43,0.16,0.49,0.38L2.89,3H14.5C14.78,3,15,3.22,15,3.5c0,0.03,0,0.06-0.01,0.09
	l-1.5,8C13.45,11.83,13.24,12,13,12H4c-0.24,0-0.45-0.17-0.49-0.41l-1.5-7.98L1.61,2H0.5C0.22,2,0,1.78,0,1.5z M3.1,4l1.31,7h8.17
	l1.31-7H3.1z M5,12c-1.1,0-2,0.9-2,2s0.9,2,2,2s2-0.9,2-2S6.1,12,5,12z M12,12c-1.1,0-2,0.9-2,2s0.9,2,2,2s2-0.9,2-2S13.1,12,12,12z
	 M5,13c0.55,0,1,0.45,1,1s-0.45,1-1,1s-1-0.45-1-1S4.45,13,5,13z M12,13c0.55,0,1,0.45,1,1s-0.45,1-1,1s-1-0.45-1-1S11.45,13,12,13z
	"/>
</svg>
