<svg id="圖層_3" data-name="圖層 3" xmlns="http://www.w3.org/2000/svg" viewBox="0 0 38.35 35"><title>icon</title><path d="M37.24,18.47a12.81,12.81,0,0,0-2.14-3.41c1.57-11.68.53-13.69-9-5.73-.34-.12-.64-.21-.87-.28-2-.64-2.51-4.86-2.74-7.09A2,2,0,0,0,20.73,0a2.59,2.59,0,0,0-.45,0,3.33,3.33,0,0,0-.51,0A2.06,2.06,0,0,0,17.85,2c-.24,2.1-.74,6-2.71,6.94C5.24.14,4,1.84,5.3,13.57a13.93,13.93,0,0,0-4.06,4.9C-1.81,24.84.78,31,8.75,32.16a10.15,10.15,0,0,0,2.55,0c-.24.8-.51,2.16.22,2.7,1.05.78,3.89-1.58,4.05-2.13a2.6,2.6,0,0,0,.06-.57l.24,0a.78.78,0,0,1,.69.18A5.77,5.77,0,0,0,20,33.59h.5a4.86,4.86,0,0,0,3-1.26.77.77,0,0,1,.72-.21,2.06,2.06,0,0,0,.93,0h.12s.06,0,.06,0a4.08,4.08,0,0,0,.05.59c.16.55,3,2.91,4.06,2.13.7-.53.47-1.81.24-2.61.5,0,.83-.07.83-.07C37.66,31,40,24.84,37.24,18.47Z"/></svg>