<?xml version="1.0" encoding="utf-8"?>
<!-- Generator: Adobe Illustrator 23.1.0, SVG Export Plug-In . SVG Version: 6.00 Build 0)  -->
<svg version="1.1" id="圖層_3" xmlns="http://www.w3.org/2000/svg" xmlns:xlink="http://www.w3.org/1999/xlink" x="0px" y="0px"
	 viewBox="0 0 245.56 31" style="enable-background:new 0 0 245.56 31;" xml:space="preserve">
<style type="text/css">
	.st0{fill:#040000;}
</style>
<g>
	<path d="M120.51,2.07c-0.16-0.08-0.32-0.15-0.49-0.21c-0.74-0.51-0.28-1.87-1.23-1.86c-0.82,0.06,0.24,1.29-1.26,1.78
		c-0.64,0.1-1.94,0.86-2.36,1.87c-0.48,1.16-0.59,4.39,3.5,4.39c2.04,0,3.55-1.33,3.56-3.16c0-0.15-0.05-0.96-0.42-1.66
		C121.53,2.69,121.01,2.27,120.51,2.07z"/>
	<path d="M233.17,12.07c2.51-2.3,5.31-2.73,8.1-1.3c2.87,1.48,4.62,4.83,4.23,8.11c-0.52,4.38-3.8,7.33-8,7.21
		c-1.6-0.05-2.55-0.51-4.48-2.28c0,1.34,0,2.46,0,3.58c0,3.01,0.1,2.39-2.36,2.91c-1.13,0.24-2.27,0.43-3.4,0.66
		c-0.65,0.13-1.02-0.02-1.02-0.79c0.02-6.32,0.01-12.64,0.01-18.96c0-0.66,0.23-1,0.94-1c1.62,0.02,3.24,0.02,4.85,0
		C233.42,10.19,232.81,11.36,233.17,12.07z M238.8,18.03c0-1.67-1.24-3-2.84-3.03c-1.65-0.04-2.95,1.3-2.93,3.02
		c0.02,1.75,1.3,3.09,2.93,3.06C237.53,21.05,238.79,19.69,238.8,18.03z"/>
	<path d="M133.34,14.67c2.29-1.87,4.31-3.53,6.34-5.18c0.24-0.2,0.49-0.38,0.71-0.59c0.6-0.57,1.03-0.44,1.49,0.22
		c0.78,1.15,1.61,2.27,2.46,3.36c0.48,0.62,0.33,0.99-0.28,1.39c-1.13,0.74-2.21,1.56-3.34,2.29c-0.61,0.4-0.77,0.88-0.64,1.57
		c0.42,2.3,1.29,3.08,3.54,3.03c0.57-0.01,0.67,0.22,0.62,0.68c-0.15,1.26-0.29,2.53-0.44,3.79c-0.06,0.53-0.33,0.84-0.9,0.85
		c-1.23,0.03-2.47,0.09-3.68-0.27c-1.23-0.37-2.24-1.06-2.85-2.21c-0.34-0.65-0.57-1.35-0.91-1.99c-0.21-0.4-0.11-1.27-0.73-1.08
		c-0.63,0.19-1.35,0.66-1.37,1.54c-0.02,0.93-0.03,1.85-0.01,2.78c0.02,0.73-0.29,1.04-1.03,1.03c-1.43-0.03-2.86-0.06-4.28,0.01
		c-1.1,0.06-1.51-0.32-1.48-1.44c0.06-2.31,0.02-4.63,0.02-6.94c0-3.63,0.04-7.25-0.02-10.88c-0.02-1.15,0.4-1.59,1.49-1.69
		c1.42-0.14,2.84-0.31,4.23-0.59c1-0.2,1.25,0.19,1.23,1.07c-0.06,2.54-0.1,5.09-0.15,7.63C133.33,13.46,133.34,13.88,133.34,14.67z
		"/>
	<path d="M192.72,12.37c1.31-1.68,2.96-2.42,4.98-2.4c2.76,0.03,4.78,1.43,5.76,4.01c0.41,1.09,0.62,2.23,0.64,3.39
		c0.04,2.43,0,4.86,0.04,7.28c0.01,0.89-0.3,1.25-1.21,1.22c-1.46-0.05-2.93-0.05-4.39,0c-0.86,0.03-1.17-0.32-1.17-1.15
		c0.02-2.2,0.01-4.39,0-6.59c0-0.5,0.01-1.01-0.06-1.5c-0.22-1.66-1.77-2.39-3.18-1.48c-1.08,0.69-1.62,1.72-1.62,3.02
		c0,2.12-0.04,4.24,0,6.36c0.02,0.97-0.29,1.4-1.33,1.35c-1.42-0.07-2.85-0.05-4.28-0.01c-0.81,0.02-1.19-0.23-1.19-1.11
		c0.02-6.17,0.01-12.33,0.01-18.5c0-0.62,0.17-1.03,0.87-1.12c1.56-0.21,3.13-0.44,4.68-0.7c0.91-0.15,1.26,0.17,1.24,1.1
		c-0.04,1.85-0.02,3.7-0.01,5.55C192.52,11.47,192.42,11.86,192.72,12.37z"/>
	<path d="M46.95,12.98c1.86-2.62,4.18-3.39,6.89-2.88c2.55,0.47,3.97,2.23,4.64,4.64c0.46,1.65,0.5,3.35,0.49,5.05
		c-0.02,1.62-0.03,3.24,0,4.86c0.02,0.86-0.27,1.27-1.2,1.23c-1.42-0.06-2.85-0.06-4.28,0c-0.94,0.04-1.31-0.3-1.29-1.26
		c0.04-2.27,0.02-4.55,0.01-6.83c-0.01-1.93-0.61-2.89-1.84-3.02c-1.24-0.13-2.53,0.93-2.95,2.47c-0.4,1.52-0.14,3.07-0.19,4.61
		c-0.04,1-0.02,2.01-0.01,3.01c0.01,0.66-0.24,1.01-0.95,1c-1.62-0.02-3.24-0.02-4.86,0c-0.71,0.01-0.96-0.34-0.96-0.99
		c0-4.55,0-9.1,0-13.65c0-0.72,0.3-1.04,1.05-1.02c1.31,0.03,2.63,0.07,3.93-0.01c1.15-0.07,1.69,0.29,1.53,1.49
		C46.91,11.98,46.95,12.29,46.95,12.98z"/>
	<path d="M79.35,12.62c1.33-1.54,2.84-2.46,4.75-2.62c3.49-0.3,5.97,1.48,6.82,4.89c0.68,2.73,0.41,5.52,0.43,8.29
		c0.02,3.15,0.23,2.63-2.62,2.68c-0.77,0.01-1.54,0-2.31,0c-1.81,0-1.81,0-1.81-1.87c0-2.08,0.01-4.16,0-6.25
		c-0.01-1.85-0.59-2.8-1.77-2.96c-1.23-0.17-2.54,0.88-3,2.4c-0.17,0.56-0.21,1.13-0.21,1.71c0,1.93-0.02,3.86,0.01,5.78
		c0.01,0.8-0.23,1.22-1.12,1.19c-1.54-0.04-3.09-0.04-4.63,0c-0.76,0.02-1.03-0.33-1.03-1.04c0.01-4.51,0.01-9.02,0-13.54
		c0-0.77,0.29-1.12,1.1-1.1c1.39,0.04,2.78,0.06,4.16-0.01c0.99-0.04,1.32,0.38,1.25,1.3C79.33,11.87,79.35,12.25,79.35,12.62z"/>
	<path d="M100.47,12.66c1.89-2.24,4.17-3.07,6.91-2.57c2.87,0.52,4.78,2.86,5.01,6.4c0.19,2.8,0.06,5.63,0.09,8.44
		c0.01,0.71-0.36,0.94-1.01,0.93c-1.47-0.02-2.93-0.05-4.4,0.01c-1.01,0.05-1.38-0.32-1.36-1.32c0.04-2.2,0.02-4.4,0.01-6.59
		c0-0.46,0.01-0.93-0.06-1.39c-0.23-1.56-1.64-2.26-3.02-1.5c-1.23,0.68-1.76,1.8-1.78,3.17c-0.02,2.08-0.05,4.17,0,6.25
		c0.03,1.05-0.34,1.45-1.41,1.39c-1.46-0.08-2.93-0.04-4.4-0.02c-0.68,0.01-0.98-0.28-0.98-0.96c0.01-4.59,0.01-9.18,0-13.77
		c0-0.7,0.35-0.94,1.01-0.93c1.35,0.02,2.7,0.05,4.05-0.01c1.01-0.05,1.44,0.32,1.33,1.33C100.43,11.9,100.47,12.28,100.47,12.66z"
		/>
	<path d="M215.34,26.1c-4.57,0-7.92-2.22-8.93-5.75c-1.48-5.17,2.01-9.94,7.57-10.34c2.07-0.15,4.09,0.05,5.96,1.04
		c3.13,1.65,4.56,4.61,4.08,8.34c-0.4,3.08-2.82,5.6-6.18,6.43C216.94,26.03,216.03,26.16,215.34,26.1z M212.43,18.07
		c0.01,2.37,1.79,3.82,3.71,3.01c1.3-0.55,1.75-1.65,1.78-2.97c0.04-1.48-0.63-2.65-1.74-3.12
		C214.23,14.17,212.42,15.64,212.43,18.07z"/>
	<path d="M162.93,15.55c0,0.93-0.06,1.86,0.01,2.78c0.33,4.67-2.96,7.14-6.32,7.62c-3.27,0.46-6.32,0.06-8.75-2.48
		c-1.06-1.11-1.61-2.47-1.64-3.98c-0.06-2.7,0-5.4-0.03-8.1c-0.01-0.91,0.36-1.23,1.24-1.19c1.31,0.05,2.63,0.07,3.93,0
		c1.05-0.06,1.44,0.3,1.41,1.38c-0.06,2.31-0.02,4.63-0.02,6.94c0,0.62,0.03,1.25,0.42,1.77c0.48,0.64,1.15,0.93,1.94,0.72
		c0.85-0.23,1.26-0.87,1.27-1.73c0.02-2.47,0.02-4.94,0.03-7.41c0.01-1.66,0.01-1.66,1.69-1.66c1.08,0,2.16,0,3.24,0
		c1.57,0.01,1.58,0.01,1.58,1.64C162.94,13.08,162.93,14.31,162.93,15.55z"/>
	<path d="M177.71,10c1.56-0.08,2.84,0.11,4.11,0.5c0.66,0.21,0.89,0.58,0.81,1.29c-0.31,2.91-0.29,2.92-3.16,2.41
		c-0.77-0.13-1.52-0.24-2.28,0.03c-0.26,0.09-0.51,0.23-0.52,0.55c-0.01,0.31,0.2,0.51,0.47,0.6c0.55,0.17,1.12,0.28,1.67,0.43
		c2.07,0.56,4.03,1.3,4.67,3.64c0.81,2.96-0.83,5.65-3.95,6.37c-2.49,0.58-4.97,0.34-7.43-0.36c-0.74-0.21-0.94-0.61-0.82-1.36
		c0.45-2.69,0.43-2.7,3.11-2.28c0.76,0.12,1.52,0.28,2.3,0.16c0.38-0.06,0.8-0.17,0.88-0.62c0.1-0.53-0.31-0.78-0.71-0.91
		c-1.03-0.32-2.11-0.49-3.1-0.89c-2.93-1.17-3.96-4.65-2.14-7.16c1.21-1.67,3.02-2.17,4.95-2.39C177.01,9.95,177.48,10,177.71,10z"
		/>
	<path d="M61.52,15.6c0-1.23,0-2.46,0-3.7c0.01-1.69,0.01-1.69,1.64-1.7c1.19,0,2.39,0,3.58,0c1.68,0,1.69,0.01,1.7,1.65
		c0.01,2.39,0,4.77,0,7.16c0.01,1.67,0.19,1.86,1.86,1.78c0.53-0.03,0.7,0.16,0.74,0.61c0.07,0.77,0.1,1.54,0.23,2.3
		c0.21,1.21-0.39,1.75-1.46,2.07c-4.07,1.23-7.43-0.53-8.06-4.29c-0.15-0.87-0.2-1.76-0.23-2.64C61.49,17.76,61.52,16.68,61.52,15.6
		z"/>
	<path d="M115.17,15.82c0-1.46,0.03-2.93-0.01-4.39c-0.02-0.86,0.26-1.27,1.19-1.24c1.42,0.05,2.85,0.08,4.27-0.01
		c1.12-0.07,1.37,0.44,1.36,1.43c-0.04,2.46-0.02,4.93-0.01,7.39c0.01,1.58,0.34,1.92,1.92,1.78c0.6-0.05,0.76,0.18,0.81,0.67
		c0.08,0.92,0.15,1.84,0.23,2.76c0.06,0.62-0.19,1.04-0.78,1.26c-3.92,1.5-8.67,0.65-8.96-5.27
		C115.12,18.75,115.18,17.29,115.17,15.82C115.17,15.82,115.17,15.82,115.17,15.82z"/>
	<path d="M66.8,2.07c-0.16-0.08-0.32-0.15-0.49-0.21C65.56,1.36,66.03-0.01,65.08,0c-0.82,0.06,0.24,1.29-1.26,1.78
		c-0.64,0.1-1.94,0.86-2.36,1.87c-0.48,1.16-0.59,4.39,3.5,4.39c2.04,0,3.55-1.33,3.56-3.16c0-0.15-0.05-0.96-0.42-1.66
		C67.82,2.69,67.3,2.26,66.8,2.07z"/>
	<path class="st0" d="M32.48,16.34c-0.48-1.13-1.13-2.12-1.87-2.98c1.37-10.19,0.46-11.94-7.88-4.99c-0.3-0.1-0.56-0.19-0.76-0.25
		c-1.77-0.55-2.2-4.24-2.4-6.19c-0.13-1.24-0.93-1.59-1.5-1.68c-0.16-0.02-0.29-0.03-0.39-0.03c-0.11,0-0.27,0-0.44,0.03
		c-0.64,0.09-1.54,0.44-1.68,1.68C15.36,3.78,14.92,7.15,13.21,8c-8.64-7.64-9.71-6.16-8.59,4.07c-1.42,1.12-2.7,2.53-3.53,4.27
		c-2.66,5.56-0.4,10.95,6.55,11.94c0,0,1.01,0.15,2.22-0.01c-0.21,0.69-0.45,1.88,0.19,2.35c0.92,0.69,3.4-1.37,3.54-1.85
		c0.02-0.08,0.04-0.26,0.05-0.5c0.07-0.01,0.14-0.02,0.21-0.04c0.21-0.05,0.44,0,0.6,0.15c0.4,0.37,1.32,1,3.03,1.15
		c0.02,0,0.05,0,0.07,0l0.3,0c0.02,0,0.04,0,0.07,0c1.44-0.15,2.25-0.74,2.62-1.11c0.16-0.16,0.4-0.24,0.62-0.18
		c0.3,0.07,0.57,0.05,0.81-0.02c0.05,0.01,0.09,0.01,0.1,0c0.02-0.01,0.05,0,0.05,0.03c0.01,0.25,0.03,0.44,0.05,0.52
		c0.14,0.48,2.62,2.54,3.54,1.85c0.61-0.46,0.41-1.58,0.21-2.28c0.44-0.01,0.73-0.06,0.73-0.06C32.84,27.3,34.85,21.9,32.48,16.34z"
		/>
</g>
</svg>
