<?xml version="1.0" encoding="utf-8"?>
<!-- Generator: Adobe Illustrator 23.1.0, SVG Export Plug-In . SVG Version: 6.00 Build 0)  -->
<svg version="1.1" id="圖層_1" xmlns="http://www.w3.org/2000/svg" xmlns:xlink="http://www.w3.org/1999/xlink" x="0px" y="0px"
	 viewBox="0 0 16 16" style="enable-background:new 0 0 16 16;" xml:space="preserve">
<style type="text/css">
	.st0{fill:#6D6D6D;}
</style>
<path class="st0" d="M11.74,10.34c2.12-2.9,1.49-6.96-1.4-9.09s-6.96-1.49-9.09,1.4s-1.49,6.96,1.4,9.09c2.29,1.68,5.4,1.68,7.69,0
	h0c0.03,0.04,0.06,0.08,0.1,0.11l3.85,3.85c0.39,0.39,1.02,0.39,1.41,0s0.39-1.02,0-1.41l-3.85-3.85
	C11.82,10.41,11.78,10.37,11.74,10.34L11.74,10.34z M12,6.5C12,9.54,9.54,12,6.5,12S1,9.54,1,6.5S3.46,1,6.5,1S12,3.46,12,6.5z"/>
</svg>
